<svg xmlns="http://www.w3.org/2000/svg" viewBox="0 0 954.39 575.95"><defs><style>.cls-1{fill:#205cab;}</style></defs><g id="Layer_2" data-name="Layer 2"><g id="Layer_1-2" data-name="Layer 1"><path class="cls-1" d="M492.78,224.25c-26.8,0-53.45.1-80.11,0-27.22-.12-47.27-13.46-59-36.92C331.58,142.94,311.11,97.76,290,52.91c-.48-1-.73-2.14-1.31-3.87,2.93.23,5.34.47,7.76.62,23.94,1.4,47.87,3.75,71.83,4,73.63.77,147.28,1.31,220.92.77,39-.29,78-1.68,116.79-5C749,45.79,792,40.17,834.76,34c38.49-5.6,76.69-13.16,115-19.83a7,7,0,0,1,4.61.76c-3.73,3.08-7.26,6.46-11.24,9.19-15.43,10.56-32.84,16.78-50.55,22.11-32.87,9.89-66.52,16.24-100.44,21.13-28.32,4.08-56.64,8.23-85,11.49-21.65,2.49-43.46,3.65-65.2,5.4l-4,.29,4.68,11.82c93.09-5.57,185.33-15.43,276.74-38.73-2.77,2.53-4.94,4.67-7.27,6.6-19.72,16.3-42.8,25.76-67.42,30.93q-52.7,11.07-105.82,20c-26.86,4.5-54,7.39-81.52,11.07l4.93,12.6c35.41-1.14,70.35-5.52,105.21-10.85a725.35,725.35,0,0,0,102.89-23.6,97.79,97.79,0,0,1-28.62,23C818,140,792.4,147.1,766.2,152.31c-29.65,5.89-59.29,11.88-89.76,18,1.74,4,3.54,8.21,5.92,13.71,18.8-3.1,37.83-5.9,56.73-9.44s37.66-7.84,57-10.91c-2.8,1.87-5.53,3.86-8.43,5.59-23.29,13.87-48.2,24.2-74.08,31.85-30.09,8.9-60.54,16.55-92.18,25.1.81,5,1.38,11.36,3,17.51,6.77,26.11,20,49.21,34.17,71.82,2.17,3.48,4.4,6.92,7.16,11.26-2.73.14-4.46.31-6.19.31-15.33,0-30.68-.53-46,.14-23,1-42.68-6.72-60.59-20.45a96,96,0,0,1-22.68-25c-11.51-18.14-23.25-36.13-34.92-54.17C494.67,226.63,493.91,225.75,492.78,224.25Z"/><path class="cls-1" d="M225.17,219.37c-30.35-3.44-56.63-16.62-80-35.54a147.16,147.16,0,0,1-23.42-24.48C81.84,107.84,42.37,56,2.77,4.3,2,3.3,1.4,2.18,0,0,84.74,24.07,170,38.38,256.24,45c85.45,184.55,180.51,363.24,300.43,528.63-24.69,3.22-47.79,3.92-71-3.9-21.42-7.22-36.86-20.85-49.11-38.89Q332.69,377.94,229,224.89C227.77,223.1,226.53,221.33,225.17,219.37Z"/><path class="cls-1" d="M886.46,514.68V439.53h22.62V567.8H889.81L840.9,487.14v80.72H818.08V439.55h20.83L885.24,515Z"/><path class="cls-1" d="M593.78,567.7V439.88a8.85,8.85,0,0,1,2.15-.63c13.49,0,27-.46,40.48.2,19.88,1,33.24,11.94,40.6,29.87,9.24,22.49,9.34,45.48.72,68.2-7.22,19-21.7,29.21-41.8,30.47-13.28.83-26.65.22-40,.22A10.62,10.62,0,0,1,593.78,567.7Zm23.05-23.76H628.7c15.34,0,24.07-6.52,28.57-21.3a65,65,0,0,0,1.81-30.14c-4.26-25.07-17.78-32-42.25-28.23Z"/><path class="cls-1" d="M693.72,568l36.37-128.49h26.59L796.75,568H772l-7.35-24.64H724.87c-2.19,7.95-4.47,16.18-6.8,24.63Zm50.54-94.58h-1c-4,15.3-8.08,30.6-12.18,46.17h26.62C753.12,503.87,748.69,488.63,744.26,473.38Z"/></g></g></svg>