<?xml version="1.0" encoding="UTF-8"?>
<!-- Created with Inkscape (http://www.inkscape.org/) -->
<svg width="500" height="369.68" version="1.1" viewBox="0 0 132.29 97.812" xmlns="http://www.w3.org/2000/svg" xmlns:xlink="http://www.w3.org/1999/xlink">
 <defs>
  <clipPath id="clipPath20">
   <path d="m51.024 60.095h535.75v720.14h-535.75z"/>
  </clipPath>
  <mask id="mask30" x="0" y="0" width="1" height="1" maskUnits="userSpaceOnUse">
   <g clip-path="url(#clipPath28)">
    <g transform="matrix(947.55 0 0 654.62 -134.72 157.35)">
    </g>
   </g>
  </mask>
  <clipPath id="clipPath28">
   <path d="m-134.72 811.97h947.55v-654.62h-947.55z"/>
  </clipPath>
  <clipPath>
   <path d="m-132.93 776.87h943.25v-617.02h-943.25z"/>
  </clipPath>
  <clipPath id="clipPath74">
   <path d="m51.024 780.24v-570.16c63.603-18.51 140.15-22.915 222.48-9.555 127.02 20.612 240.17 79.023 313.27 153.3v426.41z"/>
  </clipPath>
  <clipPath id="clipPath94">
   <path d="m51.024 60.095h535.75v720.14h-535.75z"/>
  </clipPath>
  <mask id="mask104" x="0" y="0" width="1" height="1" maskUnits="userSpaceOnUse">
   <g clip-path="url(#clipPath102)">
    <g transform="matrix(535.73 0 0 160.07 56.18 540.89)">
    </g>
   </g>
  </mask>
  <clipPath id="clipPath102">
   <path d="m56.18 700.96h535.73v-160.07h-535.73z"/>
  </clipPath>
  <clipPath>
   <path d="m72.295 688.07h494.54v-133.93h-494.54z"/>
  </clipPath>
  <clipPath id="clipPath272">
   <path d="m51.024 60.095h535.75v720.14h-535.75z"/>
  </clipPath>
  <clipPath id="clipPath460">
   <path d="m51.024 60.095h535.75v720.14h-535.75z"/>
  </clipPath>
 </defs>
 <g transform="translate(-167.43 -47.499)">
  <g transform="matrix(.35278 0 0 -.35278 -27.336 310.32)">
   <g clip-path="url(#clipPath20)">
    <g mask="url(#mask30)"></g>
   </g>
   <g clip-path="url(#clipPath74)"></g>
   <g clip-path="url(#clipPath94)">
    <g mask="url(#mask104)"></g>
   </g>
   <g clip-path="url(#clipPath272)"></g>
   <g clip-path="url(#clipPath460)"></g>
  </g>
  <g transform="matrix(2.2934 0 0 2.2934 -216.56 -61.435)" stroke-width=".13517">
   <g transform="matrix(1.0371 0 0 -1.0371 198.24 78.597)">
    <path d="m0 0-0.875-0.505c-0.141-0.082-0.316 0.02-0.316 0.182v21.92c0 0.162-0.175 0.263-0.315 0.182l-14.081-8.129c-0.14-0.081-0.14-0.284 0-0.364l4.379-2.528c0.13-0.075 0.21-0.214 0.21-0.364v-1.011c0-0.162-0.175-0.263-0.315-0.182l-7.075 4.085c-0.14 0.08-0.14 0.283 0 0.364l16.987 9.807c0.13 0.075 0.29 0.075 0.42 0l0.981-0.566c0.13-0.075 0.21-0.214 0.21-0.364v-22.163c0-0.15-0.08-0.288-0.21-0.364" fill="#b9e8b9"/>
   </g>
   <g transform="matrix(1.0371 0 0 -1.0371 194.09 59.428)">
    <path d="m0 0v-22.163c0-0.15 0.081-0.289 0.21-0.364l0.981-0.566c0.13-0.075 0.29-0.075 0.42 0l16.987 9.807c0.14 0.081 0.14 0.284 0 0.364l-7.075 4.085c-0.14 0.08-0.315-0.02-0.315-0.182v-1.011c0-0.15 0.08-0.289 0.211-0.364l4.377-2.528c0.141-0.08 0.141-0.283 0-0.364l-14.08-8.129c-0.139-0.08-0.315 0.02-0.315 0.182v21.92c0 0.162-0.175 0.263-0.315 0.182l-0.876-0.505c-0.129-0.076-0.21-0.214-0.21-0.364" fill="#018e01"/>
   </g>
   <g transform="matrix(1.0371 0 0 -1.0371 200.23 77.443)">
    <path d="m0 0 0.875 0.505c0.131 0.076 0.211 0.214 0.211 0.364v22.164c0 0.15-0.08 0.289-0.211 0.364l-3.782 2.184c-0.13 0.074-0.29 0.074-0.42 0l-22.591-13.043c-0.14-0.082-0.14-0.284 0-0.364l12.678-7.321c0.14-0.08 0.315 0.02 0.315 0.182v1.011c0 0.15-0.079 0.289-0.21 0.364l-9.981 5.764c-0.14 0.08-0.14 0.282 0 0.364l19.789 11.425c0.13 0.075 0.29 0.075 0.42 0l2.382-1.376c0.13-0.074 0.21-0.213 0.21-0.363v-22.042c0-0.162 0.175-0.263 0.315-0.182" fill="#b9e8b9"/>
   </g>
   <g transform="matrix(1.0371 0 0 -1.0371 203.14 75.765)">
    <path d="m0 0 0.875 0.505c0.131 0.076 0.211 0.214 0.211 0.364v22.164c0 0.15-0.08 0.289-0.211 0.363l-6.584 3.802c-0.13 0.076-0.29 0.076-0.421 0l-28.194-16.279c-0.141-0.08-0.141-0.282 0-0.363l18.283-10.556c0.14-0.081 0.314 0.02 0.314 0.182v1.011c0 0.15-0.079 0.289-0.21 0.364l-15.585 8.999c-0.14 0.081-0.14 0.283 0 0.363l25.392 14.662c0.131 0.074 0.291 0.074 0.421 0l5.184-2.994c0.13-0.074 0.21-0.213 0.21-0.364v-22.041c0-0.162 0.175-0.263 0.315-0.182" fill="#b9e8b9"/>
   </g>
   <g transform="matrix(1.0371 0 0 -1.0371 192.31 60.204)">
    <path d="m0 0-0.875-0.505c-0.131-0.076-0.211-0.214-0.211-0.364v-22.164c0-0.15 0.08-0.289 0.211-0.364l3.783-2.184c0.129-0.074 0.289-0.074 0.419 0l22.591 13.043c0.14 0.082 0.14 0.284 0 0.364l-12.678 7.321c-0.14 0.08-0.315-0.02-0.315-0.182v-1.011c0-0.15 0.079-0.289 0.209-0.364l9.982-5.764c0.14-0.08 0.14-0.282 0-0.364l-19.789-11.425c-0.13-0.075-0.29-0.075-0.419 0l-2.383 1.376c-0.13 0.074-0.21 0.213-0.21 0.363v22.042c0 0.162-0.175 0.263-0.315 0.182" fill="#018e01"/>
   </g>
   <g transform="matrix(1.0371 0 0 -1.0371 189.41 61.882)">
    <path d="m0 0-0.875-0.505c-0.131-0.076-0.211-0.214-0.211-0.364v-22.164c0-0.15 0.08-0.289 0.211-0.364l6.584-3.801c0.13-0.076 0.29-0.076 0.421 0l28.194 16.278c0.141 0.081 0.141 0.283 0 0.364l-18.283 10.556c-0.14 0.081-0.314-0.02-0.314-0.182v-1.011c0-0.15 0.079-0.289 0.21-0.364l15.586-8.999c0.139-0.081 0.139-0.283 0-0.364l-25.393-14.661c-0.131-0.074-0.291-0.074-0.421 0l-5.184 2.993c-0.13 0.075-0.21 0.214-0.21 0.365v22.041c0 0.162-0.175 0.263-0.315 0.182" fill="#018e01"/>
   </g>
  </g>
 </g>
</svg>
