<?xml version="1.0" encoding="utf-8"?>
<!-- Generator: Adobe Illustrator 23.0.1, SVG Export Plug-In . SVG Version: 6.00 Build 0)  -->
<svg version="1.1" id="Capa_1" xmlns="http://www.w3.org/2000/svg" xmlns:xlink="http://www.w3.org/1999/xlink" x="0px" y="0px"
	 viewBox="0 0 615.3 500" enable-background="new 0 0 615.3 500" xml:space="preserve">
<g>
	<path fill="#FFFFFF" d="M469.5,250c0,89.1-72.3,161.3-161.3,161.3c-89.1,0-161.3-72.2-161.3-161.3S219,88.7,308.1,88.7
		S469.5,160.9,469.5,250 M308.1,0C170,0,58.1,111.9,58.1,250s111.9,250,250,250s250-111.9,250-250S446.2,0,308.1,0"/>
	<rect y="199.5" fill="#FFFFFF" width="615.3" height="101.1"/>
</g>
<g>
	<path fill="#0098D8" d="M191.1,224.2l-19.7,52.1h-9.3l-20.2-52.1H153l13.8,37l13.5-37L191.1,224.2L191.1,224.2z"/>
	<path fill="#0098D8" d="M206.2,276.3H196v-52.1h10.2V276.3z"/>
	<path fill="#0098D8" d="M257.6,272.2c-5.1,3.3-11.1,5-18,5c-7.8,0-14.3-2.6-19.6-7.8c-5.2-5.2-7.9-11.7-7.9-19.3
		c0-7.6,2.7-13.9,7.9-19s11.9-7.7,19.8-7.7c5.9,0,11.8,1.5,17.6,4.6v10.7c-5.7-4-11.3-5.9-16.9-5.9c-5.3,0-9.7,1.7-13.2,5
		c-3.5,3.4-5.2,7.6-5.2,12.6c0,5,1.7,9,5,12.5c3.4,3.4,7.6,5,12.6,5c6.4,0,12.3-1.8,17.6-5.5v10H257.6z"/>
	<path fill="#0098D8" d="M302.2,233.2H287v43h-10.2v-43h-15v-9h40.3L302.2,233.2L302.2,233.2z"/>
	<path fill="#0098D8" d="M328.7,223.2c7.6,0,14.1,2.7,19.3,7.9c5.3,5.2,8,11.6,8,19.1c0,7.4-2.7,13.8-8,19s-11.8,7.9-19.3,7.9
		c-7.6,0-14-2.7-19.3-7.9c-5.3-5.2-8-11.6-8-19c0-4.9,1.2-9.3,3.6-13.5s5.7-7.4,10-9.9C319.2,224.5,323.8,223.2,328.7,223.2z
		 M328.7,267.3c4.8,0,8.8-1.6,12.2-5c3.3-3.3,5-7.2,5-11.9c0-4.8-1.6-8.8-5-12.1c-3.3-3.3-7.4-5-12.2-5c-4.8,0-8.9,1.6-12.2,5
		c-3.3,3.3-5,7.3-5,12c0,4.7,1.6,8.7,5,12C319.9,265.5,323.9,267.3,328.7,267.3z"/>
	<path fill="#0098D8" d="M402.8,276.3h-12l-14.4-20.8h-4.6v20.8h-10v-52.1h16.6c5.4,0,9.7,1.3,13,4.1c3.1,2.8,4.8,6.5,4.8,11.1
		c0,3.2-0.9,6-2.6,8.4c-1.7,2.4-4.1,4.2-7.2,5.3L402.8,276.3z M372,246.7h4.8c3,0,5.3-0.7,7-1.9c1.6-1.2,2.5-3,2.5-5.3
		c0-2-0.8-3.6-2.3-4.8c-1.5-1.1-3.6-1.7-6.3-1.7H372V246.7z"/>
	<path fill="#0098D8" d="M418,276.3h-10.2v-52.1H418V276.3z"/>
	<path fill="#0098D8" d="M473.7,276.3h-11l-4.1-10.8h-20.9l-4,10.8h-11l20-52.1h10.6L473.7,276.3z M455.2,256.3l-7-18.4l-6.9,18.4
		H455.2z"/>
</g>
</svg>
