<?xml version="1.0" encoding="utf-8"?>
<!-- Generator: Adobe Illustrator 23.0.1, SVG Export Plug-In . SVG Version: 6.00 Build 0)  -->
<svg version="1.1" id="Capa_1" xmlns="http://www.w3.org/2000/svg" xmlns:xlink="http://www.w3.org/1999/xlink" x="0px" y="0px"
	 viewBox="0 0 615.3 500" enable-background="new 0 0 615.3 500" xml:space="preserve">
<g>
	<path fill="#FFD329" d="M469.5,250c0,89.1-72.3,161.3-161.3,161.3c-89.1,0-161.3-72.2-161.3-161.3S219,88.7,308.1,88.7
		S469.5,160.9,469.5,250 M308.1,0C170,0,58.1,111.9,58.1,250s111.9,250,250,250s250-111.9,250-250S446.2,0,308.1,0"/>
	<rect y="199.5" fill="#FFD329" width="615.3" height="101.1"/>
	<g>
		<path fill="#0019A8" d="M234.9,272.1c-5.2,3.3-11.2,5-18,5c-7.8,0-14.3-2.6-19.7-7.8c-5.2-5.2-7.9-11.7-7.9-19.4
			s2.7-13.9,7.9-19.1c5.2-5.2,11.9-7.7,19.8-7.7c5.9,0,11.8,1.5,17.7,4.6v10.7c-5.7-4-11.4-5.9-16.9-5.9c-5.3,0-9.7,1.7-13.3,5.1
			c-3.5,3.4-5.2,7.6-5.2,12.6s1.7,9.1,5.1,12.5c3.4,3.4,7.6,5.1,12.6,5.1c6.4,0,12.3-1.8,17.7-5.5v10h0.2V272.1z"/>
		<path fill="#0019A8" d="M252,276.2h-10.2V224H252V276.2z"/>
		<path fill="#0019A8" d="M303.6,276.2h-11.9l-14.4-20.8h-4.6v20.8h-10V224h16.6c5.4,0,9.7,1.3,13,4.1c3.1,2.8,4.8,6.5,4.8,11.2
			c0,3.2-0.9,6-2.6,8.4s-4.1,4.2-7.3,5.3L303.6,276.2z M272.7,246.6h4.8c3,0,5.3-0.7,7-1.9c1.6-1.2,2.5-3.1,2.5-5.3
			c0-2-0.8-3.6-2.3-4.8c-1.5-1.1-3.6-1.7-6.3-1.7h-5.6v13.7H272.7z"/>
		<path fill="#0019A8" d="M347.4,272.1c-5.2,3.3-11.2,5-18,5c-7.8,0-14.3-2.6-19.7-7.8c-5.2-5.2-7.9-11.7-7.9-19.4
			s2.7-13.9,7.9-19.1c5.3-5.2,11.9-7.7,19.8-7.7c5.9,0,11.8,1.5,17.7,4.6v10.7c-5.7-4-11.4-5.9-16.9-5.9c-5.3,0-9.7,1.7-13.3,5.1
			c-3.5,3.4-5.2,7.6-5.2,12.6s1.7,9.1,5.1,12.5s7.6,5.1,12.6,5.1c6.4,0,12.3-1.8,17.7-5.5v10h0.2V272.1z"/>
		<path fill="#0019A8" d="M386,276.2h-31.8V224h10.2v42.6H386V276.2L386,276.2z"/>
		<path fill="#0019A8" d="M426.3,276.2H392V224h32.4v9.1h-22.2V244h17.6v9.2h-17.6v13.7h24v9.3H426.3z"/>
	</g>
</g>
</svg>
