<svg width="512" height="416" xmlns="http://www.w3.org/2000/svg">
<circle fill="none" stroke="#9364cc" stroke-width="73.76" cx="256" cy="208" r="171.12"/>
<path fill="#0019a8" d="M512 250.073H0v-84.146h512Z"/>
<path fill="#fff" d="m163.905 186.451-16.558 43.182h9.04l3.125-8.28h17.737l3.098 8.28h9.202l-16.787-43.182zm-134.625.001v43.182H57.7v-7.708H37.692v-11.379h15.17v-7.593h-15.17v-9.012h18.39v-7.49zm33.859 0v43.182h26.42v-7.908h-18.02v-35.273zm46.242 0v7.557h21.375l-21.947 35.625h36.07v-7.908h-21.68l21.68-35.274zm120.436 0v43.182h28.418v-7.708h-20.006v-11.379h15.168v-7.593h-15.168v-9.012h18.388v-7.49zm69.45 0v43.182h8.403v-19.03h19.694v19.03h8.413v-43.182h-8.412v16.502h-19.694v-16.502zm61.007 0v43.182h26.423v-7.908h-18.022v-35.274Zm48.453 0v43.182h8.414v-29.78l23.04 29.78h8.441v-43.182h-8.44v29.905l-23.04-29.905zm47.383 0v43.182h28.42v-7.708h-20.009v-11.379h15.17v-7.593h-15.17v-9.012h18.391v-7.49zm-360.983.004v43.182h8.438v-43.182zm297.138 0v43.182h8.441v-43.182zm-131.659.001v7.49h12.518v35.69h8.402v-35.69h12.49v-7.49zm-66.796.003v43.177h14.039c4.952 0 8.763-1.217 11.443-3.642 2.67-2.412 4.022-5.528 4.05-9.322 0-2.7-.808-5-2.426-6.919-1.614-1.92-3.915-3.193-6.897-3.831 1.938-.628 3.42-1.71 4.447-3.233 1.036-1.53 1.55-3.353 1.55-5.483 0-3.337-1.19-5.96-3.576-7.868-2.375-1.92-5.693-2.879-9.951-2.879zm8.411 7.298h4.078c1.665 0 2.977.425 3.937 1.281.96.854 1.433 2.025 1.433 3.529 0 1.454-.504 2.602-1.51 3.439-1.018.846-2.387 1.263-4.115 1.263h-3.823zm-33.914 4.012 6.034 15.933h-11.976zm33.914 12.838h4.934c2.548 0 4.459.504 5.73 1.512 1.276 1.017 1.92 2.538 1.92 4.553 0 1.798-.618 3.184-1.834 4.162-1.224.98-2.926 1.464-5.122 1.464h-5.628z"/>
</svg>